<svg xmlns="http://www.w3.org/2000/svg" viewBox="0 0 900 900" role="img" aria-labelledby="title desc">
  <title id="title">Minnie placeholder portrait</title>
  <desc id="desc">An elegant illustrated placeholder portrait for Minnie.</desc>
  <defs>
    <linearGradient id="bg" x1="0" y1="0" x2="1" y2="1">
      <stop offset="0" stop-color="#fffaf5"/>
      <stop offset=".7" stop-color="#f4d4da"/>
      <stop offset="1" stop-color="#e8b8c2"/>
    </linearGradient>
  </defs>
  <rect width="900" height="900" fill="url(#bg)"/>
  <circle cx="450" cy="314" r="130" fill="#513c3d"/>
  <circle cx="450" cy="330" r="95" fill="#f2c7b5"/>
  <path d="M280 790c24-176 110-274 170-274s146 98 170 274" fill="#b45e6d"/>
  <path d="M332 565c48 60 188 60 236 0" fill="none" stroke="#f7e7df" stroke-width="28" stroke-linecap="round"/>
  <path d="M368 330c38-62 125-82 190-30 12-88-54-164-136-156-79 8-133 79-118 158 22-13 43-5 64 28z" fill="#3e3334"/>
  <circle cx="392" cy="338" r="8" fill="#332828"/>
  <circle cx="508" cy="338" r="8" fill="#332828"/>
  <path d="M414 398c24 24 55 24 78 0" fill="none" stroke="#a95f62" stroke-width="10" stroke-linecap="round"/>
  <g fill="none" stroke="#d6a84d" stroke-width="9" stroke-linecap="round" opacity=".8">
    <path d="M665 235v-80l58-12v82"/>
    <circle cx="647" cy="242" r="20" fill="#d6a84d" stroke="none"/>
    <circle cx="705" cy="230" r="20" fill="#d6a84d" stroke="none"/>
    <path d="M202 606c58-44 95-44 153 0"/>
  </g>
</svg>
